<?xml version="1.0" standalone="no"?>
<!DOCTYPE svg PUBLIC "-//W3C//DTD SVG 20010904//EN"
 "http://www.w3.org/TR/2001/REC-SVG-20010904/DTD/svg10.dtd">
<svg version="1.0" xmlns="http://www.w3.org/2000/svg"
 width="500.000000pt" height="500.000000pt" viewBox="0 0 500.000000 500.000000"
 preserveAspectRatio="xMidYMid meet">

<g transform="translate(0.000000,500.000000) scale(0.100000,-0.100000)"
fill="#000000" stroke="none">
<path d="M2375 4824 c-424 -25 -824 -158 -1168 -391 -488 -329 -829 -815 -966
-1375 -50 -205 -63 -320 -63 -558 0 -423 85 -759 283 -1121 230 -420 576 -748
1020 -969 325 -161 641 -233 1019 -233 378 0 694 72 1019 233 379 189 669 439
903 780 294 428 430 930 398 1465 -49 812 -533 1545 -1265 1917 -258 131 -496
205 -765 237 -99 12 -328 20 -415 15z m255 -134 c551 -36 1033 -253 1420 -640
421 -421 640 -951 641 -1550 1 -495 -140 -918 -440 -1320 -558 -748 -1547
-1058 -2441 -764 -557 183 -1023 590 -1281 1119 -153 314 -220 607 -220 970
-1 362 64 642 226 970 341 695 1040 1163 1810 1214 66 4 125 9 130 9 6 1 75
-3 155 -8z"/>
<path d="M2648 3903 c-43 -13 -78 -29 -78 -36 0 -18 191 -671 199 -680 8 -8
168 36 181 50 7 7 -164 614 -190 671 -12 27 -14 26 -112 -5z"/>
<path d="M3235 2858 c-29 -95 -39 -125 -43 -135 -3 -9 8 -13 36 -13 39 0 41 2
91 80 l51 80 -66 0 c-43 0 -66 -4 -69 -12z"/>
<path d="M1508 2785 l-37 -65 44 0 c41 0 46 3 64 37 l19 38 18 -38 c16 -34 21
-37 61 -37 24 0 43 2 43 4 0 3 -16 32 -35 65 l-36 61 -52 0 -52 0 -37 -65z"/>
<path d="M2711 2659 c-80 -24 -114 -71 -114 -159 0 -74 19 -106 119 -203 69
-67 86 -89 91 -119 6 -42 -8 -68 -38 -68 -27 0 -46 25 -54 71 l-7 41 -52 -7
c-66 -9 -66 -10 -60 -48 18 -101 52 -141 135 -158 100 -21 186 25 209 112 23
84 -14 166 -116 256 -36 32 -72 70 -80 85 -27 53 -13 98 32 98 25 0 34 -17 34
-62 0 -29 2 -30 31 -24 17 3 44 6 60 6 26 0 29 3 29 33 -1 43 -33 112 -62 131
-30 20 -114 28 -157 15z"/>
<path d="M3663 2660 c-49 -11 -80 -36 -105 -83 -22 -40 -23 -53 -23 -242 0
-189 1 -202 23 -243 40 -75 125 -106 227 -83 85 19 125 79 125 187 l0 54 -64
0 -63 0 -7 -62 c-8 -70 -18 -88 -50 -88 -44 0 -46 13 -46 235 0 222 2 235 46
235 31 0 41 -17 49 -82 l7 -58 64 0 64 0 0 55 c0 98 -40 156 -120 174 -51 12
-81 12 -127 1z"/>
<path d="M640 2335 l0 -325 70 0 69 0 3 143 3 142 50 0 50 0 3 -142 3 -143 69
0 70 0 0 325 0 325 -70 0 -69 0 -3 -132 -3 -133 -50 0 -50 0 -3 133 -3 132
-69 0 -70 0 0 -325z"/>
<path d="M1170 2335 l0 -325 70 0 70 0 0 325 0 325 -70 0 -70 0 0 -325z"/>
<path d="M1450 2335 l0 -325 145 0 145 0 0 50 0 50 -75 0 -75 0 0 95 0 94 58
3 57 3 3 48 3 47 -60 0 -61 0 0 80 0 80 75 0 75 0 0 50 0 50 -145 0 -145 0 0
-325z"/>
<path d="M1850 2393 c0 -239 2 -272 19 -309 26 -57 74 -79 171 -79 90 1 132
21 163 80 20 38 22 57 25 308 l4 267 -71 0 -70 0 -3 -266 c-3 -249 -4 -267
-22 -280 -25 -18 -37 -18 -62 0 -18 13 -19 31 -22 280 l-3 266 -65 0 -64 0 0
-267z"/>
<path d="M3150 2656 c0 -2 -27 -147 -60 -321 -33 -174 -60 -319 -60 -321 0 -2
29 -4 64 -4 71 0 67 -4 81 93 l7 47 48 0 c54 0 55 -1 65 -83 l7 -57 64 0 c35
0 64 3 64 8 0 9 -108 588 -115 620 -5 21 -11 22 -85 22 -44 0 -80 -2 -80 -4z
m100 -283 c6 -54 14 -108 17 -120 5 -21 1 -23 -31 -23 -42 0 -41 -1 -25 117
12 91 18 123 23 123 2 0 9 -44 16 -97z"/>
<path d="M4040 2335 l0 -325 70 0 70 0 0 145 0 145 50 0 50 0 0 -145 0 -145
70 0 70 0 0 325 0 325 -70 0 -69 0 -3 -132 -3 -133 -47 -3 -48 -3 0 135 0 136
-70 0 -70 0 0 -325z"/>
<path d="M1530 1894 l0 -55 53 3 52 3 3 53 3 52 -55 0 -56 0 0 -56z"/>
</g>
</svg>
